<svg width="456" height="457" xmlns="http://www.w3.org/2000/svg" xmlns:xlink="http://www.w3.org/1999/xlink" xml:space="preserve" overflow="hidden"><g transform="translate(-412 -192)"><path d="M228 0C102.079-3.37508e-14-6.75015e-14 102.079 0 228-3.37508e-14 353.921 102.079 456 228 456 353.921 456 456 353.921 456 228 455.863 102.135 353.864 0.136132 228 2.02504e-13ZM228 399C133.559 399 57 322.441 57 228 57 133.559 133.559 57 228 57 322.441 57 399 133.559 399 228 398.895 322.398 322.398 398.895 228 399ZM323 228C323 243.74 310.24 256.5 294.5 256.5L256.5 256.5 256.5 294.5C256.5 310.24 243.74 323 228 323 212.26 323 199.5 310.24 199.5 294.5L199.5 256.5 161.5 256.5C145.76 256.5 133 243.74 133 228 133 212.26 145.76 199.5 161.5 199.5L199.5 199.5 199.5 161.5C199.5 145.76 212.26 133 228 133 243.74 133 256.5 145.76 256.5 161.5L256.5 199.5 294.5 199.5C310.24 199.5 323 212.26 323 228Z" fill="#00B8C9" transform="matrix(1 0 0 1.00219 412 192)"/></g></svg>