<svg width="512" height="512" xmlns="http://www.w3.org/2000/svg" xmlns:xlink="http://www.w3.org/1999/xlink" xml:space="preserve" overflow="hidden"><defs><clipPath id="clip0"><rect x="712" y="63" width="512" height="512"/></clipPath></defs><g clip-path="url(#clip0)" transform="translate(-712 -63)"><path d="M1202.13 248.472 1050.97 97.3039C1005.11 51.567 930.89 51.567 885.035 97.3039L733.867 248.472C719.819 262.445 711.945 281.457 712 301.272L712 522.668C712.047 551.567 735.475 574.975 764.374 574.999L1171.63 574.999C1200.53 574.976 1223.95 551.567 1224 522.668L1224 301.272C1224.05 281.457 1216.18 262.445 1202.13 248.472ZM1160 510.999 1053.33 510.999 1053.33 443.116C1053.33 398.132 1016.87 361.665 971.882 361.665 971.882 361.665 971.882 361.665 971.882 361.665L964.117 361.665C919.134 361.665 882.667 398.132 882.667 443.116L882.667 443.116 882.667 510.999 776 510.999 776 301.272C776.007 298.443 777.125 295.731 779.115 293.72L930.283 142.552C951.108 121.721 984.876 121.717 1005.71 142.542 1005.71 142.545 1005.71 142.549 1005.72 142.552L1156.89 293.72C1158.87 295.731 1159.99 298.443 1160 301.272L1160 510.999Z" fill="#00B8C9"/></g></svg>