<svg width="512" height="512" xmlns="http://www.w3.org/2000/svg" xmlns:xlink="http://www.w3.org/1999/xlink" xml:space="preserve" overflow="hidden"><g transform="translate(-33 -97)"><path d="M535.635 554.498 436.539 455.36C510.687 356.271 490.469 215.834 391.381 141.685 292.292 67.5367 151.855 87.7546 77.7063 186.843 3.55758 285.932 23.7755 426.369 122.864 500.518 202.46 560.08 311.784 560.08 391.381 500.518L490.519 599.656C502.978 612.114 523.177 612.114 535.634 599.656 548.092 587.198 548.092 566.998 535.634 554.541L535.635 554.498ZM257.949 481.383C169.883 481.383 98.4933 409.993 98.4933 321.928 98.4933 233.862 169.883 162.472 257.949 162.472 346.014 162.472 417.404 233.862 417.404 321.928 417.31 409.953 345.975 481.289 257.949 481.383Z" fill="#00B8C9"/></g></svg>